HIERARCHY
ROOT Hips
{
	OFFSET -3.958830 18.904000 13.208200
	CHANNELS 6 Xposition Yposition Zposition Zrotation Yrotation Xrotation 
	JOINT LHipJoint
	{
		OFFSET 0.000000 0.000000 0.000000
		CHANNELS 3 Zrotation Yrotation Xrotation
		JOINT LeftUpLeg
		{
			OFFSET 1.800000 -1.400000 0.085000
			CHANNELS 3 Zrotation Yrotation Xrotation
			JOINT LeftLeg
			{
				OFFSET 2.215000 -6.000000 0.000000
				CHANNELS 3 Zrotation Yrotation Xrotation
				JOINT LeftFoot
				{
					OFFSET 2.500000 -6.900000 0.000000
					CHANNELS 3 Zrotation Yrotation Xrotation
					JOINT LeftToeBase
					{
						OFFSET 0.200000 -0.500000 1.950000
						CHANNELS 3 Zrotation Yrotation Xrotation
						End Site
						{
							OFFSET 0.000000 0.000000 0.000000
						}
					}
				}
			}
		}
	}
	JOINT RHipJoint
	{
		OFFSET 0.000000 0.000000 0.000000
		CHANNELS 3 Zrotation Yrotation Xrotation
		JOINT RightUpLeg
		{
			OFFSET -1.800000 -1.400000 0.085000
			CHANNELS 3 Zrotation Yrotation Xrotation
			JOINT RightLeg
			{
				OFFSET -2.215000 -6.000000 0.000000
				CHANNELS 3 Zrotation Yrotation Xrotation
				JOINT RightFoot
				{
					OFFSET -2.500000 -6.900000 0.000000
					CHANNELS 3 Zrotation Yrotation Xrotation
					JOINT RightToeBase
					{
						OFFSET -0.200000 -0.500000 1.950000
						CHANNELS 3 Zrotation Yrotation Xrotation
						End Site
						{
							OFFSET 0.000000 0.000000 0.000000
						}
					}
				}
			}
		}
	}
	JOINT LowerBack
	{
		OFFSET 0.000000 0.000000 0.000000
		CHANNELS 3 Zrotation Yrotation Xrotation
		JOINT Spine
		{
			OFFSET -0.087000 1.940000 -0.288900
			CHANNELS 3 Zrotation Yrotation Xrotation
			JOINT Spine1
			{
				OFFSET 0.000000 1.950000 0.060000
				CHANNELS 3 Zrotation Yrotation Xrotation
				JOINT Neck
				{
					OFFSET 0.000000 0.000000 0.000000
					CHANNELS 3 Zrotation Yrotation Xrotation
					JOINT Neck1
					{
						OFFSET 0.000000 1.600000 0.340000
						CHANNELS 3 Zrotation Yrotation Xrotation
						JOINT Head
						{
							OFFSET 0.000000 1.667000 -0.240000
							CHANNELS 3 Zrotation Yrotation Xrotation
							End Site
							{
								OFFSET 0.000000 0.000000 0.000000
							}
						}
					}
				}
				JOINT LeftShoulder
				{
					OFFSET 0.000000 0.000000 0.000000
					CHANNELS 3 Zrotation Yrotation Xrotation
					JOINT LeftArm
					{
						OFFSET 2.700000 1.550000 -0.730000
						CHANNELS 3 Zrotation Yrotation Xrotation
						JOINT LeftForeArm
						{
							OFFSET 5.450000 0.000000 0.000000
							CHANNELS 3 Zrotation Yrotation Xrotation
							JOINT LeftHand
							{
								OFFSET 3.450000 0.000000 0.000000
								CHANNELS 3 Zrotation Yrotation Xrotation
								JOINT LeftHandIndex1
								{
									OFFSET 0.750000 0.000000 0.000000
									CHANNELS 3 Zrotation Yrotation Xrotation
									End Site
									{
										OFFSET 0.000000 0.000000 0.000000
									}
								}
							}
						}
					}
				}
				JOINT RightShoulder
				{
					OFFSET 0.000000 0.000000 0.000000
					CHANNELS 3 Zrotation Yrotation Xrotation
					JOINT RightArm
					{
						OFFSET -2.700000 1.550000 -0.730000
						CHANNELS 3 Zrotation Yrotation Xrotation
						JOINT RightForeArm
						{
							OFFSET -5.450000 0.000000 0.000000
							CHANNELS 3 Zrotation Yrotation Xrotation
							JOINT RightHand
							{
								OFFSET -3.450000 0.000000 0.000000
								CHANNELS 3 Zrotation Yrotation Xrotation
								JOINT RightHandIndex1
								{
									OFFSET -0.750000 0.000000 0.000000
									CHANNELS 3 Zrotation Yrotation Xrotation
									End Site
									{
										OFFSET 0.000000 0.000000 0.000000
									}
								}
							}
						}
					}
				}
			}
		}
	}
}
MOTION
Frames: 8
Frame Time: 0.016667
-2.340220 17.922850 -2.624340 -2.963292 -29.371994 8.445455 -14.964376 12.889876 2.070784 10.742651 -0.478685 -7.977851 -0.871902 4.153002 7.592332 -0.518098 4.316911 3.507526 -0.002720 0.129120 -0.507700 18.543295 -10.562154 3.421115 -5.083881 2.880690 -18.619177 13.689116 -2.956350 0.589072 0.342948 -3.809548 3.155573 0.561890 1.291280 0.203450 -4.292066 -0.637900 -6.919231 14.955076 -5.028834 14.283507 -1.994618 -5.062271 28.487945 2.506627 2.262004 -5.783792 2.937220 -3.279501 32.566931 -3.240110 -6.003400 7.939220 0.539312 -19.270063 1.034478 36.368603 -61.210166 -18.632275 82.406270 -33.415565 -26.034965 -4.827386 2.827844 -0.671450 0.983860 -0.797270 0.430520 -2.545618 17.039848 2.348956 -28.464195 55.876879 -16.351812 -76.748772 31.850152 -25.677676 2.023231 -1.927476 -0.383620 0.527090 0.219890 0.339680 
-2.346740 17.916280 -2.623460 -2.977272 -29.509824 8.638873 -14.958969 12.883892 2.055719 10.611161 -0.493523 -8.147362 -0.577880 4.080152 7.672975 -0.547361 4.297220 3.519120 0.001320 0.146250 -0.521140 18.549242 -10.583542 3.419963 -5.070528 2.951503 -18.999158 13.597135 -2.959976 0.863318 0.359691 -3.794410 3.162386 0.588800 1.315550 0.196150 -4.308663 -0.580978 -6.895107 14.902726 -4.857203 14.169858 -1.907764 -4.927931 28.424962 2.400402 2.294855 -5.579910 3.023550 -3.466431 32.254245 -3.180100 -6.314610 7.676960 0.233825 -18.066006 0.851484 38.033245 -62.565549 -20.003064 82.216522 -33.681811 -26.009789 -4.845489 2.819322 -0.686240 1.000140 -0.813050 0.438530 -2.008786 15.925632 2.059152 -28.336318 56.985787 -16.257944 -77.144668 32.255550 -26.034872 2.006099 -1.926330 -0.396050 0.553850 0.226430 0.346610 
-2.363450 17.913180 -2.609300 -3.218732 -29.351721 8.636157 -14.974203 12.970375 2.046103 10.863916 -0.494435 -8.187898 -0.029664 4.000451 7.826173 -0.555985 4.285791 3.511080 0.036800 0.199500 -0.500360 18.532026 -10.569212 3.375809 -4.858803 3.007513 -19.264968 13.481264 -3.110876 1.902215 0.355771 -3.753086 3.167090 0.620910 1.301650 0.203990 -4.250582 -0.760720 -6.857489 14.464349 -5.127543 14.269032 -1.609839 -5.332178 28.468543 2.043991 2.140488 -5.298634 2.707396 -2.945063 32.336509 -3.065930 -5.839440 7.059950 0.460893 -17.406267 0.756516 36.836711 -63.558823 -19.522865 82.649726 -33.736940 -26.442504 -4.851423 2.820356 -0.688670 0.998540 -0.792400 0.447050 -1.541518 15.389403 1.538519 -26.693771 58.374093 -15.118625 -77.579755 33.165057 -26.784943 1.988067 -1.920932 -0.381430 0.558030 0.209870 0.347350 
-2.375220 17.906030 -2.607510 -3.154051 -28.885653 8.527806 -14.948119 12.987929 2.032407 10.850601 -0.534391 -8.426132 0.386954 3.920733 8.154950 -0.584478 4.260232 3.510263 0.052870 0.218480 -0.496810 18.548721 -10.650329 3.345400 -4.762536 3.103804 -20.005352 13.191710 -3.318272 3.349819 0.366574 -3.710381 3.164212 0.637710 1.303290 0.217970 -4.303332 -0.660781 -6.819734 14.570312 -5.097464 14.357499 -1.774775 -5.438986 28.092009 1.885240 2.423277 -4.921062 3.242274 -3.087763 32.168118 -2.923060 -5.927240 6.657840 0.111356 -16.773287 0.476073 38.887231 -64.663988 -21.209393 80.150071 -35.330993 -26.156588 -4.850154 2.832921 -0.690060 1.004020 -0.789550 0.447950 -0.780684 14.585730 0.969410 -23.008807 59.248777 -12.183711 -79.455567 34.587375 -28.539090 1.960019 -1.902686 -0.374560 0.560730 0.217050 0.345540 
-2.377920 17.895930 -2.602960 -3.260671 -28.825704 8.370070 -14.925793 13.022202 2.006886 11.075303 -0.528061 -8.728789 0.487847 3.996524 9.039331 -0.662487 4.297403 3.475743 0.085850 0.247260 -0.448660 18.560130 -10.712035 3.328294 -4.756621 3.213399 -20.509103 13.211533 -3.564057 4.749278 0.345998 -3.658282 3.159312 0.670790 1.282290 0.200970 -4.345438 -0.611693 -6.792150 14.714670 -5.087934 14.728094 -1.854326 -5.465979 27.813470 1.693222 2.420414 -4.450210 3.239846 -3.162844 32.296062 -2.634620 -6.129760 4.783020 0.708582 -16.353986 0.120227 38.237419 -65.301036 -20.881970 79.742074 -35.848808 -26.511943 -4.836420 2.760946 -0.626530 0.973160 -0.755410 0.433270 -0.915407 14.226505 0.324105 -19.194470 59.941020 -9.535809 -80.422259 35.031747 -29.528857 1.921682 -1.828598 -0.401400 0.625470 0.230670 0.314980 
-2.377190 17.903830 -2.602210 -3.228918 -28.901959 7.984970 -14.916514 13.135006 1.974292 10.829107 -0.511342 -9.128218 1.168796 3.987270 10.435271 -0.647686 4.279217 3.487838 0.047050 0.207240 -0.480190 18.549742 -10.786614 3.309294 -4.638466 3.272253 -20.929448 12.769816 -3.759581 6.235567 0.380660 -3.631870 3.181311 0.641780 1.301450 0.184520 -4.313136 -0.659253 -6.767481 14.439676 -5.044032 15.398342 -1.904557 -5.297808 28.103470 1.753705 2.540796 -4.546503 3.404680 -3.269635 32.700451 -2.418430 -6.230180 5.552560 0.688476 -17.220575 0.482317 37.295630 -65.440341 -20.553654 80.492638 -35.622851 -26.806785 -4.839734 2.739074 -0.636740 0.977240 -0.772770 0.434170 -1.021313 15.044263 0.236500 -17.589839 59.199727 -8.503419 -80.765728 35.046616 -29.886434 1.934964 -1.812360 -0.412170 0.626790 0.236760 0.325860 
-2.366460 17.910520 -2.585370 -3.289624 -28.951648 7.670438 -14.913863 13.218534 1.952292 10.780933 -0.508349 -9.408387 1.319306 4.114399 11.766294 -0.621402 4.340203 3.479460 -0.019390 0.125080 -0.541870 18.536476 -10.821512 3.300724 -4.849429 3.298680 -21.238055 13.057445 -4.071482 7.580120 0.407827 -3.682269 3.175145 0.590710 1.345660 0.163720 -4.277267 -0.727579 -6.759184 14.199307 -5.027339 15.851045 -1.692989 -5.247061 28.161909 1.821516 2.837586 -4.585301 3.851131 -3.510657 33.492323 -1.594100 -6.816280 6.598670 0.701340 -17.869745 0.736594 35.898623 -65.908368 -19.973291 80.572900 -35.306770 -26.809550 -4.847362 2.725119 -0.642360 0.979450 -0.809390 0.431870 -1.107850 15.513479 0.060440 -15.715498 58.767548 -7.270975 -80.324831 35.246783 -29.908601 1.948387 -1.779912 -0.435130 0.639730 0.270950 0.341490 
-2.365510 17.907960 -2.569770 -3.360650 -28.921284 7.429783 -14.899683 13.258935 1.929595 10.847641 -0.539898 -9.805629 1.366947 4.242455 13.017715 -0.643010 4.430459 3.452794 -0.060520 0.069210 -0.574000 18.539369 -10.869659 3.292822 -4.957861 3.309587 -21.447360 13.148895 -4.308278 8.602052 0.427469 -3.727811 3.164768 0.572250 1.382210 0.149600 -4.291382 -0.710106 -6.740350 14.442313 -5.127423 16.054424 -1.657680 -5.206282 28.109243 1.768336 2.723946 -4.501390 3.569954 -4.249917 33.391612 -1.685210 -7.820240 6.689160 0.149911 -18.050741 0.473110 34.888276 -66.594682 -19.621001 79.417643 -35.692880 -26.671770 -4.866958 2.693661 -0.639560 0.990230 -0.839840 0.422470 -0.441897 15.797560 0.211777 -16.358207 58.523974 -7.828199 -79.782039 36.008671 -29.921606 1.931784 -1.735028 -0.465560 0.673510 0.309150 0.341450 
